#N canvas 575 19 779 686 12;
#X obj 78 161 scope;
#X obj 208 274 dac~;
#X obj 223 195 *~ 0.2;
#X obj 197 132 *~;
#X obj 254 54 osc~ 100;
#X text 175 14 ring modulation;
#X obj 463 349 dac~;
#X obj 471 302 *~ 0.2;
#X obj 470 136 *~;
#X obj 527 58 osc~ 100;
#X obj 693 57 vsl 20 170 0 5000 0 0 empty empty empty 0 -9 0 12 #fcfcfc #000000 #000000 0 1;
#X obj 448 59 osc~ 500;
#X obj 507 110 +~ 1;
#X obj 545 151 /~ 2;
#X obj 175 55 osc~ 30;
#X obj 554 261 scope;
#X text 448 17 amplitude modulation;
#X obj 665 57 vsl 20 170 0 5000 0 0 empty empty empty 0 -9 0 12 #fcfcfc #000000 #000000 0 1;
#X obj 358 63 vsl 20 170 0 5000 0 0 empty empty empty 0 -9 0 12 #fcfcfc #000000 #000000 0 1;
#X obj 331 62 vsl 20 170 0 5000 0 0 empty empty empty 0 -9 0 12 #fcfcfc #000000 #000000 0 1;
#X text 32 310 Frequency modulation;
#X obj 72 484 osc~;
#X obj 66 696 dac~;
#X obj 73 548 *~ 0.2;
#X obj 152 488 *~;
#X obj 220 446 line~;
#X obj 218 482 scope;
#X obj 72 514 *~;
#X obj 723 57 vsl 20 170 0 1 0 0 empty empty empty 0 -9 0 12 #fcfcfc #000000 #000000 0 1;
#X msg 725 238 \$1 20;
#X obj 721 276 line~;
#X obj 455 228 *~;
#X obj 210 160 *~;
#X obj 388 65 vsl 20 170 0 1 0 0 empty empty empty 0 -9 0 12 #fcfcfc #000000 #000000 0 1;
#X msg 390 246 \$1 20;
#X obj 386 284 line~;
#X obj 148 410 osc~ 483;
#X obj 149 437 *~ 8000;
#X obj 193 631 rev3~, f 37;
#X msg 394 590 50;
#X msg 221 408 1 \, 0 100;
#X obj 67 409 sig~ 30;
#X obj 81 341 random 2000;
#X obj 171 342 random 2000;
#X obj 225 300 bng 20 250 50 0 empty empty empty 0 -10 0 12 #fcfcfc #000000 #000000;
#X floatatom 173 375 5 0 0 0 - - - 0;
#X floatatom 106 375 5 0 0 0 - - - 0;
#X obj 459 398 tgl 20 0 empty empty empty 0 -10 0 12 #fcfcfc #000000 #000000 0 1;
#X obj 455 438 metro 200, f 11;
#X obj 452 471 bng 20 250 50 0 empty empty empty 0 -10 0 12 #fcfcfc #000000 #000000;
#X obj 452 496 random 1000;
#X floatatom 271 376 5 0 0 0 - - - 0;
#X obj 269 343 random 8000;
#X obj 621 450 swap 60000;
#X obj 626 517 /;
#X obj 629 574 / 4;
#X floatatom 626 625 5 0 0 0 - - - 0;
#X obj 596 667 metro;
#X obj 591 617 tgl 20 0 empty empty empty 0 -10 0 12 #fcfcfc #000000 #000000 0 1;
#X msg 620 403 33;
#X obj 584 406 vsl 20 170 33 300 0 0 empty empty empty 0 -9 0 12 #fcfcfc #000000 #000000 0 1;
#X msg 310 586 96;
#X connect 2 0 1 0;
#X connect 2 0 1 1;
#X connect 3 0 0 0;
#X connect 3 0 32 0;
#X connect 4 0 3 1;
#X connect 7 0 6 0;
#X connect 7 0 6 1;
#X connect 8 0 15 0;
#X connect 8 0 31 0;
#X connect 9 0 12 0;
#X connect 10 0 9 0;
#X connect 11 0 8 0;
#X connect 12 0 13 0;
#X connect 13 0 8 1;
#X connect 14 0 3 0;
#X connect 17 0 11 0;
#X connect 18 0 4 0;
#X connect 19 0 14 0;
#X connect 21 0 27 0;
#X connect 23 0 22 0;
#X connect 23 0 22 1;
#X connect 23 0 38 0;
#X connect 23 0 38 1;
#X connect 24 0 21 0;
#X connect 25 0 24 1;
#X connect 25 0 26 0;
#X connect 25 0 27 1;
#X connect 27 0 23 0;
#X connect 28 0 29 0;
#X connect 29 0 30 0;
#X connect 30 0 31 1;
#X connect 31 0 7 0;
#X connect 32 0 2 0;
#X connect 33 0 34 0;
#X connect 34 0 35 0;
#X connect 35 0 32 1;
#X connect 36 0 37 0;
#X connect 37 0 24 0;
#X connect 38 0 22 0;
#X connect 38 1 22 1;
#X connect 39 0 38 5;
#X connect 40 0 25 0;
#X connect 41 0 21 0;
#X connect 42 0 46 0;
#X connect 43 0 45 0;
#X connect 44 0 42 0;
#X connect 44 0 43 0;
#X connect 44 0 40 0;
#X connect 44 0 52 0;
#X connect 45 0 36 0;
#X connect 46 0 41 0;
#X connect 47 0 48 0;
#X connect 48 0 49 0;
#X connect 49 0 50 0;
#X connect 49 0 44 0;
#X connect 50 0 48 1;
#X connect 51 0 37 1;
#X connect 52 0 51 0;
#X connect 53 0 54 0;
#X connect 53 1 54 1;
#X connect 54 0 55 0;
#X connect 55 0 56 0;
#X connect 56 0 57 1;
#X connect 57 0 44 0;
#X connect 58 0 57 0;
#X connect 59 0 53 0;
#X connect 60 0 53 0;
#X connect 61 0 38 2;
#X connect 61 0 38 3;
